<svg xmlns="http://www.w3.org/2000/svg" width="160.735" height="36.896" viewBox="0 0 160.735 36.896">
  <g id="Group_1199" data-name="Group 1199" transform="translate(-3160.313 -4535)">
    <g id="Group_924" data-name="Group 924" transform="translate(3160.313 4535)">
      <path id="Path_1397" data-name="Path 1397" d="M7.632.587a1.573,1.573,0,0,1,1.135.5l3.217,3.292a14.819,14.819,0,0,1,6.243-1.33A15.692,15.692,0,0,1,24.6,4.384l3.343-3.247a1.875,1.875,0,0,1,1.2-.55,1.448,1.448,0,0,1,1.072.563L36.33,7.226a1.376,1.376,0,0,1,0,2.129L32.862,12.8a15.891,15.891,0,0,1,0,12.4l3.4,3.417a1.636,1.636,0,0,1,.569,1.138A1.583,1.583,0,0,1,36.2,30.9L30.15,36.975a1.541,1.541,0,0,1-1.1.508,1.331,1.331,0,0,1-1.04-.508l-3.471-3.481a15.19,15.19,0,0,1-6.148,1.266,16.391,16.391,0,0,1-6.214-1.2l-3.4,3.474a1.524,1.524,0,0,1-1.135.45A1.524,1.524,0,0,1,6.5,37.036L.568,30.929a1.4,1.4,0,0,1-.537-1.143A1.7,1.7,0,0,1,.568,28.64l3.341-3.372a14.515,14.515,0,0,1-1.324-6.2,16.8,16.8,0,0,1,1.2-6.328L.441,9.319A1.5,1.5,0,0,1,0,8.212,1.664,1.664,0,0,1,.376,7.1L6.5,1.092a1.57,1.57,0,0,1,1.135-.5M13.7,14.238a6.506,6.506,0,0,0-1.929,4.708,6.441,6.441,0,0,0,1.892,4.669,6.2,6.2,0,0,0,4.615,1.935,6.46,6.46,0,0,0,4.691-1.936,6.315,6.315,0,0,0,1.968-4.669,6.442,6.442,0,0,0-1.968-4.706,6.351,6.351,0,0,0-4.653-1.973A6.232,6.232,0,0,0,13.7,14.238" transform="translate(0.001 -0.587)" fill="#4355d6" fill-rule="evenodd"/>
    </g>
    <path id="Path_1398" data-name="Path 1398" d="M50.611,33.018A2.026,2.026,0,0,1,50,31.52V4.105a2.01,2.01,0,0,1,.611-1.518A2.086,2.086,0,0,1,52.115,2h9.71a10.529,10.529,0,0,1,4.834,1.074,8.191,8.191,0,0,1,3.312,3,8.06,8.06,0,0,1,1.2,4.353,6.16,6.16,0,0,1-1.077,3.562,7.865,7.865,0,0,1-2.945,2.552,7.675,7.675,0,0,1,4.348,2.592,7.552,7.552,0,0,1,1.584,4.939,9.372,9.372,0,0,1-1.32,4.94,9.01,9.01,0,0,1-3.7,3.4,11.65,11.65,0,0,1-5.382,1.215H52.114A2.047,2.047,0,0,1,50.611,33.018ZM61.823,15a5.9,5.9,0,0,0,3.839-1.173,4.132,4.132,0,0,0,1.442-3.4,4.069,4.069,0,0,0-1.442-3.38,5.962,5.962,0,0,0-3.839-1.154h-7.6V15h7.6Zm.855,14.739a6.867,6.867,0,0,0,4.59-1.477,5.186,5.186,0,0,0,1.748-4.191,4.577,4.577,0,0,0-1.728-3.846,7.325,7.325,0,0,0-4.61-1.337H54.226v10.85h8.452Zm14.428,3.281a2.028,2.028,0,0,1-.609-1.5V4.105a2.012,2.012,0,0,1,.609-1.518A2.09,2.09,0,0,1,78.61,2h9.71a10.526,10.526,0,0,1,4.834,1.074,8.2,8.2,0,0,1,3.312,3,8.061,8.061,0,0,1,1.2,4.353,6.167,6.167,0,0,1-1.077,3.562,7.884,7.884,0,0,1-2.946,2.552,7.673,7.673,0,0,1,4.348,2.592,7.553,7.553,0,0,1,1.585,4.939,9.371,9.371,0,0,1-1.32,4.94,9.009,9.009,0,0,1-3.7,3.4,11.64,11.64,0,0,1-5.382,1.215H78.609a2.054,2.054,0,0,1-1.5-.607ZM88.32,15a5.891,5.891,0,0,0,3.839-1.173,4.132,4.132,0,0,0,1.442-3.4,4.069,4.069,0,0,0-1.442-3.38,5.959,5.959,0,0,0-3.838-1.154h-7.6V15h7.6Zm.853,14.739a6.868,6.868,0,0,0,4.592-1.477,5.188,5.188,0,0,0,1.747-4.191,4.578,4.578,0,0,0-1.727-3.846,7.333,7.333,0,0,0-4.612-1.337H80.721v10.85h8.451Zm20.552,2.675a14.362,14.362,0,0,1-5.6-5.778,17.521,17.521,0,0,1-1.991-8.415,17.4,17.4,0,0,1,1.991-8.393,14.391,14.391,0,0,1,5.6-5.757,17.313,17.313,0,0,1,16.412,0,14.522,14.522,0,0,1,5.616,5.757,17.268,17.268,0,0,1,2.011,8.393,17.4,17.4,0,0,1-2.01,8.415,14.519,14.519,0,0,1-5.6,5.778,17.353,17.353,0,0,1-16.43,0m14.32-3.385a11.442,11.442,0,0,0,4.222-4.482,13.231,13.231,0,0,0,1.513-6.326,13.244,13.244,0,0,0-1.513-6.327,11.337,11.337,0,0,0-4.2-4.459,12.337,12.337,0,0,0-12.228,0,11.328,11.328,0,0,0-4.2,4.459,13.245,13.245,0,0,0-1.515,6.327,13.229,13.229,0,0,0,1.515,6.325,11.871,11.871,0,0,0,16.41,4.483m14.592,3.991a2.043,2.043,0,0,1-.6-1.5V4.105A2.031,2.031,0,0,1,140.116,2h7.234a15.832,15.832,0,0,1,8.038,2.024,14.224,14.224,0,0,1,5.477,5.609,16.76,16.76,0,0,1,1.958,8.159,16.892,16.892,0,0,1-1.957,8.181,14.2,14.2,0,0,1-5.478,5.628,15.815,15.815,0,0,1-8.038,2.024h-7.234A2,2,0,0,1,138.637,33.018Zm8.713-3.118a11.5,11.5,0,0,0,5.938-1.539,10.634,10.634,0,0,0,4.078-4.314,13.237,13.237,0,0,0,1.458-6.256,13.134,13.134,0,0,0-1.458-6.236,10.662,10.662,0,0,0-4.078-4.292,11.5,11.5,0,0,0-5.938-1.539h-5.157V29.9Z" transform="translate(3158.224 4535.521)" fill="#4355d6" fill-rule="evenodd"/>
  </g>
</svg>
