<svg xmlns="http://www.w3.org/2000/svg" width="32" height="32" viewBox="0 0 32 32">
  <g id="Group_5" data-name="Group 5" transform="translate(28 -575)">
    <circle id="Ellipse_2" data-name="Ellipse 2" cx="16" cy="16" r="16" transform="translate(-28 575)" fill="#3468d1"/>
    <g id="cardano" transform="translate(-24.998 579.009)">
      <path id="Path_1" data-name="Path 1" d="M12.518.062a.719.719,0,0,1,.945.944.724.724,0,0,1-1.162.229A.731.731,0,0,1,12.518.062M6.5.71a.558.558,0,0,1,.735.542.558.558,0,0,1-.8.507A.569.569,0,0,1,6.5.71M18.826,1.77A.562.562,0,0,1,18.722.7c.4-.193.76.169.818.545a.617.617,0,0,1-.715.522M7.87,3.272a.871.871,0,1,1-.122,1.438A.878.878,0,0,1,7.87,3.272m8.674.381a.879.879,0,0,1,1.569-.037.922.922,0,0,1-.574,1.276.908.908,0,0,1-1-1.239m-4.75,1.2a1.081,1.081,0,0,1,1.04-1.018,1.142,1.142,0,0,1,.892.579,1.025,1.025,0,0,1-.48,1.4,1.359,1.359,0,0,1-.765.067,1.112,1.112,0,0,1-.687-1.025m-8.949.818a.718.718,0,1,1-.116,1.2.728.728,0,0,1,.116-1.2m19.217,0a.716.716,0,1,1,.079,1.235.716.716,0,0,1-.079-1.235M14.31,6.681a1.735,1.735,0,1,1-1.074,2.253A1.743,1.743,0,0,1,14.31,6.681m-4.264.086a1.735,1.735,0,1,1-.809,2.347,1.749,1.749,0,0,1,.809-2.347M5.777,8.227a1.09,1.09,0,0,1,1.045-.892A1.151,1.151,0,0,1,7.837,8.352,1.083,1.083,0,0,1,6.825,9.4,1.018,1.018,0,0,1,5.777,8.227m12.61-.779a1.023,1.023,0,1,1-.076,1.771,1.031,1.031,0,0,1,.076-1.771M8.311,10.186a1.734,1.734,0,1,1-1.117,2.42,1.749,1.749,0,0,1,1.117-2.42m8.087,0a1.736,1.736,0,1,1-1.023,2.488A1.754,1.754,0,0,1,16.4,10.183m-12.888.863a.878.878,0,0,1,1.1,1.107.868.868,0,0,1-1.4.368.878.878,0,0,1,.306-1.475m17.475.928a.987.987,0,0,1,.92-1.037.924.924,0,0,1,.836.907.871.871,0,0,1-1.265.768,1.175,1.175,0,0,1-.491-.638M.341,11.359a.564.564,0,1,1-.226.865A.574.574,0,0,1,.341,11.359Zm24.456-.01a.559.559,0,0,1,.82.264.551.551,0,0,1-.545.767c-.551.05-.729-.789-.274-1.031M10.418,13.69a1.734,1.734,0,1,1-1.35,1.671,1.754,1.754,0,0,1,1.35-1.671m4.042,0a1.736,1.736,0,1,1-1.27,1.281,1.745,1.745,0,0,1,1.27-1.281m-7.793.647a1.023,1.023,0,1,1-.636,1.688,1.031,1.031,0,0,1,.636-1.688m11.854.032a1.022,1.022,0,1,1-.193,1.823,1.025,1.025,0,0,1,.193-1.823m3.313,3.323a.712.712,0,0,1,.722-1,.881.881,0,0,1,.6.369c.034.276.091.606-.139.819a.713.713,0,0,1-1.187-.19M2.842,16.821a.723.723,0,0,1,1.072.724.72.72,0,1,1-1.072-.724m9.565,1.048a1.02,1.02,0,1,1-.19,1.813,1.032,1.032,0,0,1,.19-1.813M7.977,18.9a.867.867,0,0,1,1.215.811.857.857,0,0,1-.957.846A.856.856,0,0,1,7.977,18.9m8.974.009a.871.871,0,1,1-.1,1.46.879.879,0,0,1,.1-1.46m1.56,3.858a.614.614,0,0,1,.445-.909c.322.066.663.308.6.682a.573.573,0,0,1-1.04.227M6.124,22.445c.1-.3.337-.59.685-.513a.567.567,0,0,1,.214,1.038.608.608,0,0,1-.9-.525m5.976.34a.712.712,0,0,1,1.038-.418c.247.106.319.382.382.617-.034.122-.064.245-.094.367a.808.808,0,0,1-.6.356.712.712,0,0,1-.722-.922" transform="translate(0)" fill="#fff"/>
    </g>
  </g>
</svg>
