<svg xmlns="http://www.w3.org/2000/svg" width="32" height="32" viewBox="0 0 32 32">
  <g id="Group_20" data-name="Group 20" transform="translate(0 -664)">
    <g id="cosmos-atom-logo" transform="translate(-0.122 663.878)">
      <circle id="Ellipse_18" data-name="Ellipse 18" cx="16" cy="16" r="16" transform="translate(0.122 0.122)" fill="#2e3148"/>
      <circle id="Ellipse_19" data-name="Ellipse 19" cx="9.444" cy="9.444" r="9.444" transform="translate(6.678 6.679)" fill="#1b1e36"/>
      <path id="Path_43" data-name="Path 43" d="M1011.411,159.47c-1.757,0-3.181,6.372-3.181,14.233s1.425,14.233,3.181,14.233,3.181-6.372,3.181-14.233S1013.168,159.47,1011.411,159.47Zm.22,27.663a.252.252,0,0,1-.4.067,7.558,7.558,0,0,1-1.214-2.679c-1.415-4.554-1.078-14.333-1.078-14.333.665-7.763,1.875-9.6,2.287-10a.251.251,0,0,1,.322-.026c.6.423,1.1,2.194,1.1,2.194A41.841,41.841,0,0,1,1013.99,173a55.266,55.266,0,0,1-.741,9.511C1012.575,186.328,1011.631,187.133,1011.631,187.133Z" transform="translate(-995.256 -157.547)" fill="#6f7390"/>
      <path id="Path_44" data-name="Path 44" d="M321.3,669.109c-.875-1.524-7.11.411-13.932,4.323s-11.634,8.319-10.759,9.843,7.11-.411,13.932-4.323,11.634-8.319,10.759-9.843Zm-23.884,13.956c-.335-.042-.259-.317-.259-.317a7.571,7.571,0,0,1,1.718-2.386c3.248-3.494,11.9-8.068,11.9-8.068,7.064-3.287,9.258-3.148,9.815-2.995a.251.251,0,0,1,.182.268c-.067.729-1.356,2.044-1.356,2.044a41.773,41.773,0,0,1-8.565,6.469,55.163,55.163,0,0,1-8.619,4.09c-3.647,1.314-4.814.9-4.814.9h0Z" transform="translate(-292.8 -660.036)" fill="#6f7390"/>
      <path id="Path_45" data-name="Path 45" d="M323.52,679.848c.882-1.52-3.918-5.948-10.716-9.889s-13.033-5.9-13.913-4.378,3.918,5.948,10.72,9.889S322.64,681.371,323.52,679.848Zm-24.045-13.679a.254.254,0,0,1,.145-.383,7.554,7.554,0,0,1,2.926.294c4.65,1.059,12.942,6.253,12.942,6.253,6.384,4.468,7.364,6.435,7.51,6.994a.251.251,0,0,1-.139.292,5.662,5.662,0,0,1-2.449-.149,41.874,41.874,0,0,1-9.891-4.173,54.91,54.91,0,0,1-7.854-5.407c-2.967-2.5-3.19-3.717-3.19-3.717Z" transform="translate(-295.05 -656.559)" fill="#6f7390"/>
      <circle id="Ellipse_20" data-name="Ellipse 20" cx="1.674" cy="1.674" r="1.674" transform="translate(14.448 14.448)" fill="#b7b9c8"/>
      <ellipse id="Ellipse_21" data-name="Ellipse 21" cx="0.971" cy="1.005" rx="0.971" ry="1.005" transform="translate(22.016 8.688)" fill="#b7b9c8"/>
      <ellipse id="Ellipse_22" data-name="Ellipse 22" cx="0.971" cy="1.005" rx="0.971" ry="1.005" transform="translate(6.076 12.104)" fill="#b7b9c8"/>
      <ellipse id="Ellipse_23" data-name="Ellipse 23" cx="0.971" cy="1.005" rx="0.971" ry="1.005" transform="translate(13.175 24.428)" fill="#b7b9c8"/>
    </g>
  </g>
</svg>
