<svg xmlns="http://www.w3.org/2000/svg" width="32" height="32" viewBox="0 0 32 32">
  <g id="Group_27" data-name="Group 27" transform="translate(0 -928)">
    <rect id="Rectangle_1" data-name="Rectangle 1" width="32" height="32" rx="16" transform="translate(0 928)" fill="#2771d5"/>
    <g id="Group_26" data-name="Group 26" transform="translate(5 932.5)">
      <path id="Path_58" data-name="Path 58" d="M4.5.555a.909.909,0,0,1,.658.274l1.92,1.92a8.342,8.342,0,0,1,3.676-.768,9.929,9.929,0,0,1,3.785.768L16.513.829A1.18,1.18,0,0,1,17.226.5a.948.948,0,0,1,.658.329L21.505,4.4a.7.7,0,0,1,.274.6.881.881,0,0,1-.274.6l-2.03,2.03a9.179,9.179,0,0,1,0,7.351l2.03,2.03a.948.948,0,0,1,.329.658.848.848,0,0,1-.384.658L17.884,21.9a.869.869,0,0,1-.658.274.881.881,0,0,1-.6-.274l-2.14-1.92a9.124,9.124,0,0,1-3.621.768,9.337,9.337,0,0,1-3.676-.713l-2.03,2.03a.927.927,0,0,1-1.317,0L.329,18.439a.823.823,0,0,1,0-1.317L2.3,15.148a8.183,8.183,0,0,1-.768-3.676,9.416,9.416,0,0,1,.713-3.73L.274,5.712A.909.909,0,0,1,0,5.053.874.874,0,0,1,.219,4.4L3.84.829A1.14,1.14,0,0,1,4.5.555M8.119,8.619a3.809,3.809,0,0,0-1.152,2.8,3.856,3.856,0,0,0,1.1,2.743,3.688,3.688,0,0,0,2.743,1.152,3.9,3.9,0,0,0,2.8-1.152,3.775,3.775,0,0,0,1.152-2.743,3.992,3.992,0,0,0-1.152-2.8,3.775,3.775,0,0,0-2.743-1.152A3.6,3.6,0,0,0,8.119,8.619" transform="translate(0)" fill="#fff" fill-rule="evenodd"/>
    </g>
  </g>
</svg>
