<svg xmlns="http://www.w3.org/2000/svg" width="31.373" height="31.856" viewBox="0 0 31.373 31.856">
  <g id="Group_2" data-name="Group 2" transform="translate(-13.227 -54.2)">
    <g id="Group_1" data-name="Group 1" transform="translate(13.227 54.2)">
      <g id="Vector">
        <path id="path1_fill" d="M301.486,485.9a15.6,15.6,0,0,0-11.1,4.659,16.127,16.127,0,0,0,0,22.537,15.542,15.542,0,0,0,22.192,0,16.127,16.127,0,0,0,0-22.537A15.566,15.566,0,0,0,301.486,485.9Z" transform="translate(-285.8 -485.9)" fill="#f7931a"/>
      </g>
      <g id="Vector_1_" transform="translate(7.766 5.867)">
        <path id="path2_fill" d="M342.784,524.663c-.708-2.019-2.64-2.261-4.9-1.9l-.708-2.865-1.726.431.69,2.8c-.449.121-.915.242-1.363.362l-.69-2.813-1.726.431.708,2.865c-.362.1-.742.207-1.087.293v-.017l-2.381.6.466,1.864s1.26-.345,1.242-.311a.909.909,0,0,1,1.173.518l.811,3.279a.733.733,0,0,1,.19-.035l-.19.052,1.122,4.59a.643.643,0,0,1-.5.742c.034.017-1.26.311-1.26.311l.173,2.174,2.243-.569c.414-.1.828-.207,1.225-.293l.708,2.9,1.726-.431-.708-2.882c.483-.1.932-.224,1.381-.328l.707,2.865,1.726-.432-.708-2.9c2.847-.9,4.694-2.157,4.262-4.987-.345-2.278-1.622-3-3.365-2.985a2.83,2.83,0,0,0,.759-3.331Zm-.88,6.816c.535,2.174-3.193,2.847-4.349,3.141l-.949-3.848C337.78,530.5,341.352,529.236,341.9,531.479Zm-2.123-5.212c.483,1.967-2.623,2.519-3.589,2.761l-.863-3.486C336.3,525.284,339.264,524.2,339.782,526.268Z" transform="translate(-329.6 -519.9)" fill="#fff"/>
      </g>
    </g>
  </g>
</svg>
