<svg xmlns="http://www.w3.org/2000/svg" width="32" height="32" viewBox="0 0 32 32">
  <g id="Group_8" data-name="Group 8" transform="translate(215 -195)">
    <circle id="Ellipse_4" data-name="Ellipse 4" cx="16" cy="16" r="16" transform="translate(-215 195)" fill="#006ad2"/>
    <g id="digibyte" transform="translate(-324.4 82.6)" style="isolation: isolate">
      <path id="Path_9" data-name="Path 9" d="M116.437,124.037h11.319s3.907-.037,1.2,5a7.663,7.663,0,0,1-6.865,3.87l2.64-6.732a.535.535,0,0,0-.489-.73l-3.466-.059L116.4,136.05a16.1,16.1,0,0,0,2.264.073l-.438,1.1h2.07a.28.28,0,0,0,.261-.181l.37-.987.876-.073-.511,1.241h2.016a.365.365,0,0,0,.34-.231l.567-1.448s6.134-1.022,8.909-5.988c0,0,3.724-5.769-.657-7.814a8.477,8.477,0,0,0-2.7-.73l.516-1.26a.251.251,0,0,0-.233-.346h-1.89l-.584,1.534h-.8l.454-1.191a.253.253,0,0,0-.237-.342h-1.9l-.584,1.534h-5.9a.871.871,0,0,0-.773.464Z" fill="#fff"/>
    </g>
  </g>
</svg>
