<svg id="Cjdowner-Cryptocurrency-Flat-ICON-ICX" xmlns="http://www.w3.org/2000/svg" width="32" height="32" viewBox="0 0 32 32">
  <circle id="Ellipse_8" data-name="Ellipse 8" cx="16" cy="16" r="16" fill="#1fc5c9"/>
  <path id="Path_29" data-name="Path 29" d="M11.3,22.472l2.164-2.164a5,5,0,0,0,6.848-6.848L22.472,11.3A8,8,0,0,1,11.3,22.472ZM9.528,20.7A8,8,0,0,1,20.7,9.528L18.54,11.692a5,5,0,0,0-6.848,6.848ZM24,10a2,2,0,1,1,2-2A2,2,0,0,1,24,10ZM8,26a2,2,0,1,1,2-2A2,2,0,0,1,8,26Z" fill="#fff" fill-rule="evenodd"/>
</svg>
