<svg id="Cjdowner-Cryptocurrency-Flat-IOTA-MIOTA" xmlns="http://www.w3.org/2000/svg" width="32" height="32" viewBox="0 0 32 32">
  <circle id="Ellipse_9" data-name="Ellipse 9" cx="16" cy="16" r="16" fill="#242424"/>
  <path id="Path_30" data-name="Path 30" d="M22.257,6.77A1.274,1.274,0,1,1,20.983,5.5,1.272,1.272,0,0,1,22.257,6.77Zm-.918,4.424a1.076,1.076,0,1,1,1.079-1.076,1.078,1.078,0,0,1-1.079,1.076ZM21,13.847a.91.91,0,1,1,.644-.265A.91.91,0,0,1,21,13.847Zm-.054,1.372a.78.78,0,1,1-.78-.78.78.78,0,0,1,.78.78Zm-1.234,1.724a.667.667,0,1,1-.666-.669.667.667,0,0,1,.666.669Zm-1.35,1.223a.574.574,0,1,1-.574-.574.574.574,0,0,1,.574.574Zm6.874-7.409a1.083,1.083,0,1,1-.809-1.3,1.084,1.084,0,0,1,.809,1.3Zm-.518,2.8a.917.917,0,1,1-.684-1.1A.917.917,0,0,1,24.722,13.56ZM23.758,15.8a.776.776,0,1,1-.587-.9.775.775,0,0,1,.587.9Zm-1.242,1.7a.66.66,0,1,1-.083-.5.663.663,0,0,1,.083.5Zm-1.357,1.189A.569.569,0,1,1,20.735,18a.569.569,0,0,1,.424.684ZM19.8,19.44a.49.49,0,1,1-.373-.554A.49.49,0,0,1,19.8,19.44Zm7.1-4.856a.922.922,0,1,1-.429-1.229A.923.923,0,0,1,26.908,14.584ZM25.947,16.8a.78.78,0,1,1,.035-.6.785.785,0,0,1-.035.6Zm-1.208,1.68a.678.678,0,1,1-.328-.878.68.68,0,0,1,.328.878Zm-1.346,1.188a.6.6,0,1,1-.273-.784A.59.59,0,0,1,23.393,19.667Zm-1.355.732a.5.5,0,1,1-.25-.637.5.5,0,0,1,.25.637Zm-1.273.369a.425.425,0,1,1,.019-.325.428.428,0,0,1-.019.325ZM21.8,25.624a1.271,1.271,0,1,1,1.741-.466,1.267,1.267,0,0,1-1.741.466Zm-2.99-1.532a1.076,1.076,0,1,1,1.473-.4A1.072,1.072,0,0,1,18.811,24.092Zm-2.2-1.84a.911.911,0,1,1,1.246-.336A.908.908,0,0,1,16.609,22.252Zm-1.5-1.974a.778.778,0,1,1,1.064-.286.778.778,0,0,1-1.064.286Zm-.883-1.926a.668.668,0,1,1,.915-.246A.666.666,0,0,1,14.225,18.352Zm-.389-1.777a.573.573,0,1,1,.784-.209.572.572,0,0,1-.784.209Zm3.75,9.926a1.08,1.08,0,1,1,1.083-1.079A1.081,1.081,0,0,1,17.586,26.5Zm-2.918-2.138a.915.915,0,1,1,1.3-.042.912.912,0,0,1-1.3.042ZM13.2,22.415a.777.777,0,1,1,1.1-.036.772.772,0,0,1-1.1.036Zm-.859-1.924a.662.662,0,1,1,.937-.03A.658.658,0,0,1,12.344,20.491Zm-.356-1.764a.568.568,0,1,1,.805-.026.566.566,0,0,1-.805.026Zm.024-1.546a.485.485,0,0,1-.023-.688.469.469,0,1,1,.023.688Zm.675,8.56a.924.924,0,1,1,1.282.242.918.918,0,0,1-1.282-.242ZM11.241,23.8a.786.786,0,1,1,1.09.206.78.78,0,0,1-1.09-.206Zm-.858-1.883a.678.678,0,1,1,.941.18A.674.674,0,0,1,10.383,21.922Zm-.36-1.754a.589.589,0,1,1,.817.155.586.586,0,0,1-.817-.155Zm.04-1.536a.5.5,0,1,1,.682.11.5.5,0,0,1-.682-.11Zm.314-1.283a.427.427,0,1,1,.587.1.427.427,0,0,1-.587-.1Zm-4.74-1.542a1.268,1.268,0,1,1-.593.771,1.276,1.276,0,0,1,.593-.771ZM8.467,14a1.072,1.072,0,1,1-.5.651,1.08,1.08,0,0,1,.5-.651Zm2.7-.977a.908.908,0,1,1-.425.552.915.915,0,0,1,.425-.552Zm2.467-.306a.775.775,0,1,1-.364.47.78.78,0,0,1,.364-.47Zm2.114.2a.666.666,0,1,1-.313.4A.67.67,0,0,1,15.749,12.918Zm1.738.554a.577.577,0,0,1,.785.21.574.574,0,1,1-.785-.21ZM7.614,11.24a1.054,1.054,0,1,1-.723,1.346A1.084,1.084,0,0,1,7.614,11.24Zm2.694-.953a.914.914,0,1,1-.61,1.14A.915.915,0,0,1,10.308,10.287ZM12.734,10a.773.773,0,1,1-.516.963A.773.773,0,0,1,12.734,10Zm2.1.223a.66.66,0,1,1-.392.319.661.661,0,0,1,.392-.319Zm1.71.577a.567.567,0,1,1-.379.707A.568.568,0,0,1,16.544,10.8Zm1.33.8a.487.487,0,1,1-.324.608.487.487,0,0,1,.324-.608ZM10.1,7.888a.92.92,0,1,1-.63.315.92.92,0,0,1,.63-.315Zm2.407-.278a.783.783,0,1,1-.681.43.783.783,0,0,1,.681-.43Zm2.064.2a.676.676,0,1,1-.608.722A.677.677,0,0,1,14.575,7.814Zm1.7.568a.587.587,0,1,1-.505.324.587.587,0,0,1,.505-.324ZM17.592,9.186ZM18.549,10.1Z" fill="#fff"/>
</svg>
