<svg id="Cjdowner-Cryptocurrency-Flat-TRON-TRX" xmlns="http://www.w3.org/2000/svg" width="32" height="32" viewBox="0 0 32 32">
  <circle id="Ellipse_13" data-name="Ellipse 13" cx="16" cy="16" r="16"/>
  <path id="Path_34" data-name="Path 34" d="M24.745,12.266c-.8-.567-1.654-1.172-2.49-1.772-.019-.014-.037-.028-.06-.042a1.12,1.12,0,0,0-.328-.187l-.01-.005c-2.236-.548-4.51-1.11-6.709-1.654L9.164,7.129l-.157-.042a1.519,1.519,0,0,0-.61-.08.421.421,0,0,0-.17.066l-.056.047a.69.69,0,0,0-.157.253L8,7.411v.215l.01.033c1.26,3.585,2.554,7.222,3.8,10.741.961,2.71,1.96,5.516,2.934,8.272A.49.49,0,0,0,15.19,27h.046a.519.519,0,0,0,.462-.258l3.66-5.413q1.337-1.975,2.675-3.955l1.095-1.622c.6-.89,1.22-1.809,1.835-2.7L24.995,13v-.057a.715.715,0,0,0-.25-.68m-4.288,1.974c-.86.454-1.737.923-2.62,1.387l1.544-1.678c.642-.7,1.312-1.43,1.968-2.142l.014-.014a2.082,2.082,0,0,1,.2-.22c.05-.051.106-.1.157-.164.342.24.688.483,1.021.722q.36.26.735.52-1.514.785-3.018,1.589m-2.208-.225c-.661.726-1.345,1.471-2.024,2.207q-1.977-2.432-3.965-4.855L10.481,9.2l0-.005c-.134-.154-.264-.323-.393-.482C10,8.6,9.913,8.5,9.825,8.39c.536.14,1.077.272,1.608.4.467.113.952.23,1.428.352l8.045,1.982c-.892.966-1.789,1.945-2.657,2.892m-2.325,9.134c.051-.492.107-1,.153-1.5.042-.4.083-.806.125-1.195.064-.624.134-1.27.19-1.9l.013-.112c.046-.4.092-.82.12-1.238a1.38,1.38,0,0,1,.167-.08,1.98,1.98,0,0,0,.207-.1q1.6-.852,3.207-1.7c1.068-.562,2.163-1.144,3.249-1.72q-1.478,2.171-2.944,4.35c-.827,1.222-1.677,2.483-2.523,3.725-.332.5-.679,1-1.007,1.49-.37.544-.749,1.1-1.118,1.66.046-.563.1-1.13.161-1.683M9.484,9.5c-.06-.169-.126-.342-.181-.506,1.248,1.528,2.5,3.065,3.729,4.555.633.773,1.266,1.542,1.9,2.32.125.145.25.3.37.45.157.192.314.394.485.586-.056.482-.1.97-.153,1.438-.032.328-.064.657-.1.99v0c-.014.21-.042.422-.065.628l-.106.933-.005.032c-.083.947-.185,1.9-.282,2.831-.041.384-.078.778-.12,1.172-.023-.07-.05-.141-.074-.207q-.106-.287-.2-.576l-.5-1.392L9.483,9.5" fill="#fff"/>
</svg>
