<svg xmlns="http://www.w3.org/2000/svg" width="32" height="32" viewBox="0 0 32 32">
  <g id="Group_25" data-name="Group 25" transform="translate(0 -898)">
    <circle id="Ellipse_29" data-name="Ellipse 29" cx="16" cy="16" r="16" transform="translate(0 898)" fill="#68aefc"/>
    <g id="tusd" transform="translate(3.005 900.993)">
      <path id="Path_55" data-name="Path 55" d="M490.223,595.734v-6.78h.892a3.814,3.814,0,0,0,3.67-2.747h-7.733c-3.67,0-4.292,2.747-4.292,2.747h4.561v10.2S490.223,598.285,490.223,595.734Z" transform="translate(-476.289 -578.337)" fill="#fff"/>
      <path id="Path_56" data-name="Path 56" d="M56.447,430.917a10.561,10.561,0,0,0,2.663-10.047,10.8,10.8,0,0,0-2.871-4.951c-.125-.124-.25-.248-.4-.371l-.125-.124a2.629,2.629,0,0,0-.27-.227l-.166-.124-.25-.186-.146-.1c-.125-.083-.208-.144-.291-.206l-.187-.124a1.555,1.555,0,0,0-.25-.144l-.187-.124c-.083-.041-.166-.1-.25-.144l-.187-.1c-.083-.041-.166-.083-.27-.124l-.062-.021c.229.186.458.392.666.6a10.126,10.126,0,0,1,0,14.379,13.085,13.085,0,0,1-18.39,0c-.187-.186-.354-.371-.541-.557l-.146-.165c-.1-.124-.208-.248-.312-.392a13.6,13.6,0,0,0,21.739,3.466.739.739,0,0,0,.229-.206Z" transform="translate(-34.021 -408.236)" fill="#fff"/>
      <path id="Path_57" data-name="Path 57" d="M6.231,21.282c-.229-.186-.458-.392-.666-.6a10.136,10.136,0,0,1,0-14.393,13.1,13.1,0,0,1,18.406,0,12.772,12.772,0,0,1,1,1.115A13.642,13.642,0,0,0,3.212,3.957,1.955,1.955,0,0,1,3,4.163,10.608,10.608,0,0,0,1.817,17.5a11.127,11.127,0,0,0,4.414,3.779Z" transform="translate(0 0)" fill="#fff"/>
    </g>
  </g>
</svg>
