<svg xmlns="http://www.w3.org/2000/svg" width="32" height="32" viewBox="0 0 32 32">
  <g id="Group_23" data-name="Group 23" transform="translate(0 -766)">
    <g id="vechain-vet-logo" transform="translate(0 766)">
      <circle id="Ellipse_17" data-name="Ellipse 17" cx="16" cy="16" r="16" fill="#15bdff"/>
      <path id="Path_42" data-name="Path 42" d="M14.738,24.734,7.04,9.046A.38.38,0,0,1,7.38,8.5h2.668a.381.381,0,0,1,.34.206L16.01,20.087a1.365,1.365,0,0,0,2.452,0l5.6-11.372a.382.382,0,0,1,.34-.206h.332a.258.258,0,0,1,.233.376l-7.78,15.85a1.366,1.366,0,0,1-2.453,0Z" fill="#fff"/>
    </g>
  </g>
</svg>
