<svg xmlns="http://www.w3.org/2000/svg" width="32" height="32" viewBox="0 0 32 32">
  <g id="Group_12" data-name="Group 12" transform="translate(0 -493)">
    <circle id="Ellipse_14" data-name="Ellipse 14" cx="16" cy="16" r="16" transform="translate(0 493)" fill="#fff"/>
    <g id="nem-xem" transform="translate(-5.246 490.395)">
      <path id="Path_36" data-name="Path 36" d="M9.513,11.075a23.58,23.58,0,0,1,5.091-2.2A24.17,24.17,0,0,1,22.02,7.866a21.3,21.3,0,0,1,3.462.341c.013.025-.013.038-.038.038-.114.051-.24.088-.354.139A6.674,6.674,0,0,0,21.1,13.311a8.106,8.106,0,0,0-.114,1.1,6.152,6.152,0,0,1-.227,1.655,5.625,5.625,0,0,1-10.511.834,1.8,1.8,0,0,1-.139-.417,23.594,23.594,0,0,1-.43-2.476A22.6,22.6,0,0,1,9.5,11.239a.72.72,0,0,0,.013-.164Z" transform="translate(0 0)" fill="#f7a800"/>
      <path id="Path_37" data-name="Path 37" d="M115.208,33.521c.025-.24.051-.455.063-.682a6.669,6.669,0,0,0-3.184-6.052c-.088-.063-.189-.114-.278-.177a5.458,5.458,0,0,1-2.565-3.765,5.613,5.613,0,0,1,7.214-6.355,18.478,18.478,0,0,1,2.388.96c.543.253,1.061.531,1.579.821.063.038.114.063.189.114,0,.051.013.088.013.139,0,.67-.038,1.352-.088,2.021a25.224,25.224,0,0,1-.442,2.931,23.646,23.646,0,0,1-3.31,7.947c-.442.682-.922,1.339-1.428,1.971C115.309,33.432,115.284,33.483,115.208,33.521Z" transform="translate(-87.06 -7.31)" fill="#67b2e8"/>
      <path id="Path_38" data-name="Path 38" d="M32.81,112.756a12.2,12.2,0,0,1-1.39-.846,24.1,24.1,0,0,1-3.815-3.171,23.454,23.454,0,0,1-3.083-3.891,22.8,22.8,0,0,1-2.085-4.106.785.785,0,0,1-.038-.126c.063.038.088.051.126.076a6.46,6.46,0,0,0,1.415.846,6.548,6.548,0,0,0,2.021.531,6.727,6.727,0,0,0,4.03-.859,5.955,5.955,0,0,1,2.11-.707,5.619,5.619,0,0,1,6.089,3.967,5.489,5.489,0,0,1-.354,4.093c-.088.177-.164.341-.253.505a.874.874,0,0,1-.2.278,24.438,24.438,0,0,1-4.4,3.31c-.063.038-.126.076-.177.1Z" transform="translate(-11.27 -80.898)" fill="#00c4b3"/>
    </g>
  </g>
</svg>
