<svg xmlns="http://www.w3.org/2000/svg" width="32" height="32" viewBox="0 0 32 32">
  <g id="monero_xmr_" data-name="monero xmr " transform="translate(-41.999 -42)">
    <g id="monero_xmr" data-name="monero xmr" transform="translate(41.999 42)">
      <circle id="Эллипс_14" data-name="Эллипс 14" cx="16" cy="16" r="16" transform="translate(0 0)" fill="#fff"/>
      <path id="Эллипс_14_копия_2" data-name="Эллипс 14 копия 2" d="M498,1311a16.011,16.011,0,0,1,15.188,21.044l-4.668,0v-13.371l-10.3,10.521-10.74-10.74v13.591s-3.7.011-4.665.011A16.012,16.012,0,0,1,498,1311Z" transform="translate(-481.999 -1311)" fill="#ff6200" fill-rule="evenodd"/>
      <path id="Эллипс_14_копия" data-name="Эллипс 14 копия" d="M516.1,1395.82v8.768s3.531-.024,6.309-.024a16,16,0,0,1-27.059.039c1.73,0,6.5-.015,6.5-.015v-8.768l7.233,7.233Z" transform="translate(-492.862 -1380.04)" fill="#535354" fill-rule="evenodd"/>
    </g>
  </g>
</svg>
