<svg xmlns="http://www.w3.org/2000/svg" width="32" height="32" viewBox="0 0 32 32">
  <g id="Group_22" data-name="Group 22" transform="translate(-1 -732)">
    <g id="Group_18" data-name="Group 18" transform="translate(118 18)">
      <circle id="Ellipse_25" data-name="Ellipse 25" cx="16" cy="16" r="16" transform="translate(-117 714)" fill="#2c7df7"/>
      <g id="Layer_2" data-name="Layer 2" transform="translate(-110 718)">
        <path id="Path_41" data-name="Path 41" d="M11.15,23.505a4.88,4.88,0,0,1-3.673-1.212,3.742,3.742,0,0,1-1.153-2.612,1.732,1.732,0,0,1,.2-.863,1.493,1.493,0,0,1,.551-.551,1.921,1.921,0,0,1,1.715,0,1.469,1.469,0,0,1,.548.551,1.7,1.7,0,0,1,.209.863,1.649,1.649,0,0,1-.294,1.01,1.369,1.369,0,0,1-.7.511,1.906,1.906,0,0,0,1.1.687,5.459,5.459,0,0,0,1.5.217,3.348,3.348,0,0,0,1.891-.566,3.305,3.305,0,0,0,1.234-1.671,7.26,7.26,0,0,0,.4-2.5,6.862,6.862,0,0,0-.441-2.6,3.21,3.21,0,0,0-1.274-1.616,3.389,3.389,0,0,0-1.836-.525,3.493,3.493,0,0,0-1.59.54l-1.179.591v-.591l5.3-7.11H6.324v7.378a2.64,2.64,0,0,0,.4,1.509,1.392,1.392,0,0,0,1.234.591,2.064,2.064,0,0,0,1.219-.43,4.4,4.4,0,0,0,1.021-1.05.367.367,0,0,1,.133-.176.271.271,0,0,1,.177-.066.613.613,0,0,1,.345.147.735.735,0,0,1,.187.5,2.919,2.919,0,0,1-.066.367,3.556,3.556,0,0,1-1.26,1.564,3.125,3.125,0,0,1-1.767.537,4.568,4.568,0,0,1-3.305-.94,3.522,3.522,0,0,1-.911-2.571V6.057H0V4.686H3.753V1.561L2.894.7V0H5.388l.937.485v4.2l9.7-.03.966.97L11.044,11.6a4,4,0,0,1,1.124-.272,4.871,4.871,0,0,1,2.175.621,4.466,4.466,0,0,1,1.873,1.672,5.9,5.9,0,0,1,.845,2.016,8.494,8.494,0,0,1,.2,1.726,7.221,7.221,0,0,1-.735,3.2,4.691,4.691,0,0,1-2.2,2.2,7.131,7.131,0,0,1-3.174.734Z" fill="#fff"/>
      </g>
    </g>
  </g>
</svg>
