<svg xmlns="http://www.w3.org/2000/svg" width="31.839" height="31.843" viewBox="0 0 31.839 31.843">
  <g id="Group_16" data-name="Group 16" transform="translate(0 -110.079)">
    <g id="Bitcoin" transform="translate(0.002 110.077)">
      <path id="Path_2" data-name="Path 2" d="M31.36,19.775A15.916,15.916,0,1,1,19.766.479a15.917,15.917,0,0,1,11.594,19.3Z" transform="translate(0 0)" fill="#f7931a"/>
      <path id="Path_3" data-name="Path 3" d="M30.761,19.258c.317-2.119-1.3-3.257-3.5-4.017l.715-2.87-1.747-.435-.7,2.794c-.459-.114-.931-.222-1.4-.329l.7-2.813-1.746-.435-.716,2.869c-.38-.087-.753-.172-1.115-.262l0-.009-2.409-.6-.465,1.866s1.3.3,1.269.315a.93.93,0,0,1,.814,1.016l-.815,3.269a1.447,1.447,0,0,1,.182.058l-.185-.046-1.142,4.58a.636.636,0,0,1-.8.415c.017.025-1.27-.317-1.27-.317l-.867,2,2.273.567c.423.106.837.217,1.245.321l-.723,2.9,1.745.435.716-2.872c.477.129.939.249,1.392.361L21.5,30.879l1.747.435.723-2.9c2.979.564,5.219.336,6.161-2.358.76-2.169-.038-3.421-1.605-4.237a2.786,2.786,0,0,0,2.23-2.565Zm-3.991,5.6c-.54,2.169-4.192,1-5.376.7l.959-3.845C23.537,22.008,27.334,22.593,26.77,24.855Zm.54-5.628c-.493,1.973-3.532.971-4.519.725l.87-3.488C24.647,16.71,27.823,17.169,27.31,19.227Z" transform="translate(-7.824 -5.603)" fill="#fff"/>
    </g>
  </g>
</svg>
