<svg xmlns="http://www.w3.org/2000/svg" width="8" height="15" viewBox="0 0 8 15">
  <g id="Group_1196" data-name="Group 1196" transform="translate(-335 -270)">
    <g id="Group_1139" data-name="Group 1139" transform="translate(343.412 276.176) rotate(90)">
      <path id="angle-right" d="M4.11,3.647l-2.8,2.8a.492.492,0,0,1-.7,0L.145,5.983a.492.492,0,0,1,0-.7L2.131,3.3.145,1.313a.492.492,0,0,1,0-.7L.609.145a.492.492,0,0,1,.7,0l2.8,2.8a.493.493,0,0,1,0,.7Z" transform="translate(2.359 1.076)" fill="#4052d6"/>
      <rect id="Rectangle_1150" data-name="Rectangle 1150" width="9" height="8" transform="translate(-0.176 0.412)" fill="none" opacity="0"/>
    </g>
    <g id="Group_1139-2" data-name="Group 1139" transform="translate(334.588 278.824) rotate(-90)">
      <path id="angle-right-2" data-name="angle-right" d="M4.11,3.647l-2.8,2.8a.492.492,0,0,1-.7,0L.145,5.983a.492.492,0,0,1,0-.7L2.131,3.3.145,1.313a.492.492,0,0,1,0-.7L.609.145a.492.492,0,0,1,.7,0l2.8,2.8a.493.493,0,0,1,0,.7Z" transform="translate(2.359 1.076)" fill="#4052d6"/>
      <rect id="Rectangle_1150-2" data-name="Rectangle 1150" width="9" height="8" transform="translate(-0.176 0.412)" fill="none" opacity="0"/>
    </g>
  </g>
</svg>
