<svg xmlns="http://www.w3.org/2000/svg" width="32" height="32" viewBox="0 0 32 32">
  <g id="Group_1119" data-name="Group 1119" transform="translate(-774 -6736)">
    <path id="times" d="M16.549,92l6.823-6.823a2.145,2.145,0,0,0,0-3.033l-1.516-1.516a2.145,2.145,0,0,0-3.033,0L12,87.451,5.177,80.628a2.145,2.145,0,0,0-3.033,0L.628,82.144a2.145,2.145,0,0,0,0,3.033L7.451,92,.628,98.823a2.145,2.145,0,0,0,0,3.033l1.516,1.516a2.145,2.145,0,0,0,3.033,0L12,96.549l6.823,6.823a2.145,2.145,0,0,0,3.033,0l1.516-1.516a2.145,2.145,0,0,0,0-3.033Z" transform="translate(778 6660)" fill="#636C78"/>
    <rect id="Rectangle_1134" data-name="Rectangle 1134" width="32" height="32" transform="translate(774 6736)" fill="none"/>
  </g>
</svg>
