<svg xmlns="http://www.w3.org/2000/svg" width="32" height="32" viewBox="0 0 32 32">
  <g id="Group_1202" data-name="Group 1202" transform="translate(-976 -6939)">
    <rect id="Rectangle_1216" data-name="Rectangle 1216" width="32" height="32" transform="translate(976 6939)" fill="#fff" opacity="0"/>
    <path id="edit" d="M22.367,4.717l5.011,5.011a.543.543,0,0,1,0,.767L15.244,22.628l-5.156.572a1.081,1.081,0,0,1-1.194-1.194l.572-5.156L21.6,4.717a.543.543,0,0,1,.767,0Zm9-1.272L28.656.733a2.173,2.173,0,0,0-3.067,0L23.622,2.7a.543.543,0,0,0,0,.767l5.011,5.011a.543.543,0,0,0,.767,0l1.967-1.967A2.173,2.173,0,0,0,31.367,3.444ZM21.333,19.328v5.656H3.556V7.206H16.322a.683.683,0,0,0,.472-.194l2.222-2.222a.667.667,0,0,0-.472-1.139H2.667A2.667,2.667,0,0,0,0,6.317V25.872a2.667,2.667,0,0,0,2.667,2.667H22.222a2.667,2.667,0,0,0,2.667-2.667V17.106a.668.668,0,0,0-1.139-.472l-2.222,2.222A.683.683,0,0,0,21.333,19.328Z" transform="translate(976 6940.9)" fill="#4052d6"/>
  </g>
</svg>
