<svg xmlns="http://www.w3.org/2000/svg" width="32.001" height="32" viewBox="0 0 32.001 32">
  <g id="Group_1133" data-name="Group 1133" transform="translate(-827 -7023)">
    <path id="angle-double-left" d="M40.638,107.432,51.554,96.516a1.918,1.918,0,0,1,2.721,0l1.814,1.814a1.918,1.918,0,0,1,0,2.721L48.359,108.8l7.737,7.737a1.918,1.918,0,0,1,0,2.721l-1.814,1.822a1.918,1.918,0,0,1-2.721,0L40.646,110.161a1.921,1.921,0,0,1-.008-2.729Zm-15.411,2.729,10.916,10.916a1.918,1.918,0,0,0,2.721,0l1.814-1.814a1.918,1.918,0,0,0,0-2.721L32.949,108.8l7.737-7.737a1.918,1.918,0,0,0,0-2.721l-1.814-1.822a1.918,1.918,0,0,0-2.721,0L25.235,107.432a1.921,1.921,0,0,0-.008,2.729Z" transform="translate(802.337 6930.05)" fill="#4052d6"/>
    <rect id="Rectangle_1152" data-name="Rectangle 1152" width="32" height="32" transform="translate(827 7023)" fill="none" opacity="0"/>
  </g>
</svg>
