<svg xmlns="http://www.w3.org/2000/svg" width="32" height="32" viewBox="0 0 32 32">
  <g id="Group_1135" data-name="Group 1135" transform="translate(-922 -7024)">
    <path id="angle-double-right" d="M40.77,110.164,29.852,121.082a1.919,1.919,0,0,1-2.722,0l-1.814-1.814a1.919,1.919,0,0,1,0-2.722l7.739-7.739-7.739-7.739a1.919,1.919,0,0,1,0-2.722l1.806-1.83a1.919,1.919,0,0,1,2.722,0l10.918,10.918A1.921,1.921,0,0,1,40.77,110.164Zm15.414-2.73L45.266,96.516a1.919,1.919,0,0,0-2.722,0L40.73,98.33a1.919,1.919,0,0,0,0,2.722l7.739,7.739L40.73,116.53a1.919,1.919,0,0,0,0,2.722l1.814,1.814a1.919,1.919,0,0,0,2.722,0l10.918-10.918a1.909,1.909,0,0,0,0-2.714Z" transform="translate(897.25 6931.05)" fill="#4052d6"/>
    <rect id="Rectangle_1146" data-name="Rectangle 1146" width="32" height="32" transform="translate(922 7024)" fill="none" opacity="0"/>
  </g>
</svg>
