<svg xmlns="http://www.w3.org/2000/svg" width="32" height="32" viewBox="0 0 32 32">
  <path id="info-circle" d="M24,8A16,16,0,1,0,40,24,16,16,0,0,0,24,8Zm0,7.1a2.71,2.71,0,1,1-2.71,2.71A2.71,2.71,0,0,1,24,15.1Zm3.613,16.387a.774.774,0,0,1-.774.774H21.161a.774.774,0,0,1-.774-.774V29.935a.774.774,0,0,1,.774-.774h.774V25.032h-.774a.774.774,0,0,1-.774-.774V22.71a.774.774,0,0,1,.774-.774H25.29a.774.774,0,0,1,.774.774v6.452h.774a.774.774,0,0,1,.774.774Z" transform="translate(-8 -8)" fill="#4052d6"/>
</svg>
