<svg xmlns="http://www.w3.org/2000/svg" width="32" height="32" viewBox="0 0 32 32">
  <g id="Group_1121" data-name="Group 1121" transform="translate(-852 -6474)">
    <path id="user" d="M14,16A8,8,0,1,0,6,8,8,8,0,0,0,14,16Zm5.6,2H18.556a10.88,10.88,0,0,1-9.112,0H8.4A8.4,8.4,0,0,0,0,26.4V29a3,3,0,0,0,3,3H25a3,3,0,0,0,3-3V26.4A8.4,8.4,0,0,0,19.6,18Z" transform="translate(854 6474)" fill="#4052d6"/>
    <rect id="Rectangle_1135" data-name="Rectangle 1135" width="32" height="32" transform="translate(852 6474)" fill="none" opacity="0"/>
  </g>
</svg>
