<svg xmlns="http://www.w3.org/2000/svg" width="32" height="32" viewBox="0 0 32 32">
  <g id="Group_1129" data-name="Group 1129" transform="translate(-1212 -6661)">
    <path id="wallet" d="M28.825,38H5a1,1,0,0,1,0-2H29a1,1,0,0,0,1-1,3,3,0,0,0-3-3H4a4,4,0,0,0-4,4V56a4,4,0,0,0,4,4H28.825A3.094,3.094,0,0,0,32,57V41A3.094,3.094,0,0,0,28.825,38ZM26,51a2,2,0,1,1,2-2A2,2,0,0,1,26,51Z" transform="translate(1212 6631)" fill="#4052d6"/>
    <rect id="Rectangle_1142" data-name="Rectangle 1142" width="32" height="32" transform="translate(1212 6661)" fill="none"/>
  </g>
</svg>
